<svg width="32" height="32" viewBox="0 0 32 32" fill="none" xmlns="http://www.w3.org/2000/svg">
<g clip-path="url(#clip0_232_45)">
<path d="M25.6 0H6.4C2.86538 0 0 2.86538 0 6.4V25.6C0 29.1346 2.86538 32 6.4 32H25.6C29.1346 32 32 29.1346 32 25.6V6.4C32 2.86538 29.1346 0 25.6 0Z" fill="white"/>
<path fill-rule="evenodd" clip-rule="evenodd" d="M16.3977 15.8919L22.6252 9.44987L22.1839 15.2663C22.1749 15.4788 22.1645 15.687 22.1526 15.8919H16.3977ZM25.3875 21.1624L25.475 21.0196C24.9862 20.214 25.0336 19.7908 25.1198 19.0213C25.138 18.859 25.1579 18.6815 25.1748 18.4817L25.6205 13.2305L25.6342 13.0732C25.7692 11.4813 25.9044 9.88928 26.0396 8.2973L27 6L25.4451 6.18189L24.3412 7.29935C22.9061 5.95107 19.7114 6.88352 16.825 10.208C18.9377 8.58584 21.5171 7.91716 22.5094 9.15373L20.6316 11.0541C18.5211 10.1905 16.4975 11.1214 14.5614 13.8476C16.7466 12.1566 18.1883 11.7371 18.5536 13.1577L14.9729 16.7818L11.5432 20.4344C9.63169 20.6296 7.78501 21.4612 6.26786 22.6138C5.0229 23.5597 2.76554 26.3118 4.84632 27.6502C5.60162 28.1361 6.79423 28.0144 8.08406 27.8828C8.14281 27.8768 8.20175 27.8708 8.26087 27.8648C9.00372 27.79 9.69661 27.5973 10.3878 27.2899C11.4571 26.8141 12.5456 26.1065 13.5921 25.4263C13.7201 25.3432 13.8474 25.2605 13.9739 25.1786L13.9933 25.166C14.3876 24.911 14.7771 24.6592 15.1671 24.4173C16.3104 23.7088 17.6097 23.0708 18.758 22.6013C19.7145 22.2104 20.5648 21.9363 21.1295 21.8371C20.6724 23.1598 20.0888 24.1535 19.4119 24.9025C21.2587 23.1862 23.2315 21.8782 25.3875 21.1624ZM13.6357 25.2342C12.5627 25.9297 11.4573 26.6462 10.3603 27.1247C9.64926 27.4348 8.92677 27.6383 8.15828 27.6894C6.88922 27.7737 5.86702 27.774 5.20103 27.4096C3.37709 26.4113 5.00934 24.3622 6.09449 23.5728C7.86191 22.2875 10.8674 21.3432 12.6448 23.0923C13.3878 22.7421 14.1307 22.392 14.8736 22.0419C15.5867 21.7058 16.2998 21.3698 17.0129 21.0338C17.0894 20.8051 17.1661 20.5764 17.2429 20.3477C16.916 20.5103 16.5891 20.6801 16.2622 20.8498C15.9377 21.0183 15.6132 21.1868 15.2887 21.3482C14.8294 20.6905 13.645 20.3748 12.2917 20.3916C12.2082 20.3926 12.1247 20.3949 12.0412 20.3984L14.6578 17.6917H22.0021C21.8242 19.2761 21.5442 20.5932 21.1793 21.6902C20.6006 21.7816 19.7089 22.0647 18.7056 22.4748C17.5502 22.947 16.2433 23.5888 15.0944 24.301C14.7125 24.5376 14.3144 24.795 13.911 25.0559L13.8988 25.0638C13.8113 25.1204 13.7236 25.1772 13.6357 25.2342Z" fill="black"/>
</g>
<defs>
<clipPath id="clip0_232_45">
<rect width="32" height="32" fill="white"/>
</clipPath>
</defs>
</svg>
